<svg xmlns="http://www.w3.org/2000/svg" viewBox="0 0 800 450" role="img" aria-label="Cosmic web and a dark matter halo">
  <defs>
    <radialGradient id="bg3" cx="50%" cy="50%" r="75%"><stop offset="0%" stop-color="#000000"/><stop offset="100%" stop-color="#000000"/></radialGradient>
    <radialGradient id="halo" cx="50%" cy="50%" r="50%"><stop offset="0%" stop-color="#cfd2da" stop-opacity=".42"/><stop offset="70%" stop-color="#cfd2da" stop-opacity=".08"/><stop offset="100%" stop-color="#cfd2da" stop-opacity="0"/></radialGradient>
  </defs>
  <rect width="800" height="450" fill="url(#bg3)"/>
  <g stroke="#c9ccd2" stroke-width="1" opacity=".35">
    <path d="M120 90 L300 180 L260 320 L120 90 M300 180 L520 120 L680 230 L520 330 L300 180 M520 330 L600 400 M260 320 L470 380 L680 230 M470 380 L520 330 M120 90 L60 250 L260 320"/>
  </g>
  <circle cx="400" cy="225" r="150" fill="url(#halo)"/>
  <g fill="#c9ccd2">
    <circle cx="120" cy="90" r="4"/><circle cx="300" cy="180" r="5"/><circle cx="260" cy="320" r="4"/><circle cx="520" cy="120" r="4"/><circle cx="680" cy="230" r="5"/><circle cx="520" cy="330" r="6"/><circle cx="470" cy="380" r="4"/><circle cx="60" cy="250" r="3"/><circle cx="600" cy="400" r="3"/>
  </g>
  <circle cx="400" cy="225" r="7" fill="#ffffff"/>
  <g fill="#fff" opacity=".7"><circle cx="700" cy="70" r="1.5"/><circle cx="150" cy="400" r="1.3"/><circle cx="740" cy="330" r="1.2"/></g>
</svg>
