<svg xmlns="http://www.w3.org/2000/svg" viewBox="0 0 800 450" role="img" aria-label="Spin network of discrete spacetime">
  <defs>
    <linearGradient id="bg5" x1="0" y1="0" x2="1" y2="1"><stop offset="0%" stop-color="#000000"/><stop offset="100%" stop-color="#000000"/></linearGradient>
  </defs>
  <rect width="800" height="450" fill="url(#bg5)"/>
  <g stroke="#cfd2da" stroke-width="2" opacity=".55" fill="none">
    <path d="M200 120 L360 90 L520 140 L640 250 L520 350 L350 360 L210 280 L200 120 M360 90 L420 230 L520 140 M420 230 L640 250 M420 230 L350 360 M420 230 L210 280"/>
  </g>
  <g fill="#9aa0aa" stroke="#c9ccd2" stroke-width="1.5">
    <circle cx="200" cy="120" r="9"/><circle cx="360" cy="90" r="8"/><circle cx="520" cy="140" r="9"/><circle cx="640" cy="250" r="8"/><circle cx="520" cy="350" r="9"/><circle cx="350" cy="360" r="8"/><circle cx="210" cy="280" r="8"/>
  </g>
  <circle cx="420" cy="230" r="13" fill="#ffffff" stroke="#fff" stroke-width="1.5"/>
  <g fill="#c9ccd2" font-family="Georgia,serif" font-style="italic" font-size="15" opacity=".8">
    <text x="270" y="98">½</text><text x="452" y="150">1</text><text x="430" y="300">³⁄₂</text><text x="290" y="330">1</text>
  </g>
  <g fill="#fff" opacity=".6"><circle cx="700" cy="80" r="1.4"/><circle cx="120" cy="400" r="1.3"/><circle cx="740" cy="380" r="1.2"/></g>
</svg>
