<svg xmlns="http://www.w3.org/2000/svg" viewBox="0 0 800 450" role="img" aria-label="A quantum wave packet, the wave function psi">
  <defs>
    <linearGradient id="bg6" x1="0" y1="0" x2="1" y2="1"><stop offset="0%" stop-color="#000000"/><stop offset="100%" stop-color="#000000"/></linearGradient>
    <linearGradient id="psi" x1="0" y1="0" x2="1" y2="0"><stop offset="0%" stop-color="#cfd2da" stop-opacity="0"/><stop offset="50%" stop-color="#cfd2da"/><stop offset="100%" stop-color="#cfd2da" stop-opacity="0"/></linearGradient>
    <linearGradient id="psi2" x1="0" y1="0" x2="1" y2="0"><stop offset="0%" stop-color="#9aa0aa" stop-opacity="0"/><stop offset="50%" stop-color="#9aa0aa"/><stop offset="100%" stop-color="#9aa0aa" stop-opacity="0"/></linearGradient>
    <filter id="g6"><feGaussianBlur stdDeviation="3.2"/></filter>
  </defs>
  <rect width="800" height="450" fill="url(#bg6)"/>
  <line x1="60" y1="225" x2="740" y2="225" stroke="#3a3a3a" stroke-width="1.2" opacity=".7"/>
  <path d="M60 225 C 200 225 250 60 400 60 C 550 60 600 225 740 225" stroke="#ffffff" stroke-width="1.6" fill="none" opacity=".55" stroke-dasharray="4 6"/>
  <path d="M60 225 C 200 225 250 390 400 390 C 550 390 600 225 740 225" stroke="#ffffff" stroke-width="1.6" fill="none" opacity=".3" stroke-dasharray="4 6"/>
  <path d="M60 225 Q 110 225 130 215 T 175 215 Q 210 150 250 130 T 320 95 Q 360 80 400 80 Q 440 80 480 95 T 550 130 Q 590 150 625 215 T 670 215 Q 690 225 740 225"
        stroke="url(#psi)" stroke-width="6" fill="none" filter="url(#g6)"/>
  <path d="M60 225 C 180 225 220 120 300 120 C 350 120 360 330 400 330 C 440 330 450 120 500 120 C 580 120 620 225 740 225"
        stroke="url(#psi2)" stroke-width="3" fill="none" opacity=".85"/>
  <text x="372" y="40" fill="#ffffff" font-family="Georgia,serif" font-style="italic" font-size="34">&#968;</text>
  <g fill="#fff" opacity=".6"><circle cx="100" cy="70" r="1.5"/><circle cx="710" cy="90" r="1.4"/><circle cx="120" cy="400" r="1.3"/><circle cx="690" cy="390" r="1.4"/></g>
</svg>
